<svg xmlns="http://www.w3.org/2000/svg" xmlns:xlink="http://www.w3.org/1999/xlink" width="1080" zoomAndPan="magnify" viewBox="0 0 810 809.999993" height="1080" preserveAspectRatio="xMidYMid meet" version="1.0"><defs><clipPath id="81b6ce5a4e"><path d="M 416 310.019531 L 639.472656 310.019531 L 639.472656 499.769531 L 416 499.769531 Z M 416 310.019531 " clip-rule="nonzero"/></clipPath><clipPath id="e6221870d1"><path d="M 170.722656 310.019531 L 395 310.019531 L 395 499.769531 L 170.722656 499.769531 Z M 170.722656 310.019531 " clip-rule="nonzero"/></clipPath><clipPath id="50fc8d6f3b"><path d="M 289 310.019531 L 520 310.019531 L 520 474 L 289 474 Z M 289 310.019531 " clip-rule="nonzero"/></clipPath></defs><g clip-path="url(#81b6ce5a4e)"><path fill="#fba9c0" d="M 518.652344 339.753906 C 518.90625 339.625 587.777344 304.40625 639.328125 310.796875 C 632.753906 380.625 604.800781 435.753906 520.667969 499.796875 C 519.988281 499.402344 519.316406 498.996094 518.652344 498.566406 C 428.8125 440.988281 395.75 377.910156 428.800781 339.753906 C 461.820312 301.640625 518.527344 339.671875 518.652344 339.753906 Z M 518.652344 339.753906 " fill-opacity="1" fill-rule="evenodd"/></g><path fill="#ffffff" d="M 623.320312 333.738281 C 623.320312 334.347656 623.261719 334.953125 623.144531 335.550781 C 623.023438 336.148438 622.847656 336.726562 622.613281 337.289062 C 622.378906 337.855469 622.09375 338.386719 621.753906 338.894531 C 621.417969 339.402344 621.03125 339.871094 620.597656 340.300781 C 620.167969 340.734375 619.699219 341.117188 619.191406 341.457031 C 618.683594 341.792969 618.148438 342.082031 617.582031 342.3125 C 617.019531 342.546875 616.4375 342.722656 615.839844 342.839844 C 615.242188 342.960938 614.636719 343.019531 614.027344 343.019531 C 613.417969 343.019531 612.8125 342.960938 612.214844 342.839844 C 611.613281 342.722656 611.035156 342.546875 610.46875 342.3125 C 609.90625 342.082031 609.371094 341.792969 608.863281 341.457031 C 608.355469 341.117188 607.886719 340.734375 607.453125 340.300781 C 607.023438 339.871094 606.636719 339.402344 606.296875 338.894531 C 605.960938 338.386719 605.671875 337.855469 605.4375 337.289062 C 605.207031 336.726562 605.03125 336.148438 604.910156 335.550781 C 604.792969 334.953125 604.730469 334.347656 604.730469 333.738281 C 604.730469 333.128906 604.792969 332.527344 604.910156 331.929688 C 605.03125 331.332031 605.207031 330.75 605.4375 330.1875 C 605.671875 329.625 605.960938 329.089844 606.296875 328.582031 C 606.636719 328.074219 607.023438 327.605469 607.453125 327.175781 C 607.886719 326.746094 608.355469 326.359375 608.863281 326.023438 C 609.371094 325.683594 609.90625 325.398438 610.46875 325.164062 C 611.035156 324.929688 611.613281 324.753906 612.214844 324.636719 C 612.8125 324.515625 613.417969 324.457031 614.027344 324.457031 C 614.636719 324.457031 615.242188 324.515625 615.839844 324.636719 C 616.4375 324.753906 617.019531 324.929688 617.582031 325.164062 C 618.148438 325.398438 618.683594 325.683594 619.191406 326.023438 C 619.699219 326.359375 620.167969 326.746094 620.597656 327.175781 C 621.03125 327.605469 621.417969 328.074219 621.753906 328.582031 C 622.09375 329.089844 622.378906 329.625 622.613281 330.1875 C 622.847656 330.75 623.023438 331.332031 623.144531 331.929688 C 623.261719 332.527344 623.320312 333.128906 623.320312 333.738281 Z M 623.320312 333.738281 " fill-opacity="1" fill-rule="nonzero"/><path stroke-linecap="butt" transform="matrix(2.065543, 0, 0, 2.0625, 170.967842, 310.020004)" fill="none" stroke-linejoin="miter" d="M 209.354405 6.645604 L 219.3548 16.645605 " stroke="#fba9c0" stroke-width="1" stroke-opacity="1" stroke-miterlimit="4"/><path fill="#f44336" d="M 480.007812 343.886719 C 506.785156 343.886719 516.621094 371.210938 516.621094 371.210938 C 516.621094 371.210938 526.324219 343.886719 553.289062 343.886719 C 573.550781 343.886719 596.648438 359.921875 588.117188 396.371094 C 579.585938 432.824219 516.550781 478.230469 516.550781 478.230469 C 516.550781 478.230469 453.746094 432.824219 445.203125 396.371094 C 436.671875 359.921875 458.105469 343.886719 480.007812 343.886719 Z M 480.007812 343.886719 " fill-opacity="1" fill-rule="nonzero"/><path fill="#cc3333" d="M 475.824219 346.609375 C 496.84375 346.609375 507.28125 369.171875 510.652344 378.3125 C 511.128906 379.617188 512.953125 379.652344 513.5 378.386719 L 516.582031 371.195312 C 512.242188 357.359375 500.316406 343.886719 479.953125 343.886719 C 471.519531 343.886719 462.613281 346.667969 455.683594 352.539062 C 461.804688 348.523438 468.976562 346.609375 475.824219 346.609375 Z M 553.230469 343.886719 C 546.765625 343.886719 540.875 345.289062 536.28125 348.121094 C 539.507812 346.875 543.503906 346.609375 547.464844 346.609375 C 567.273438 346.609375 585.007812 361.605469 577.003906 396.273438 C 570.132812 426.039062 530 462.148438 517.742188 475.925781 C 516.957031 476.804688 516.691406 478.21875 516.691406 478.21875 C 516.691406 478.21875 579.496094 432.8125 588.039062 396.359375 C 596.570312 359.921875 575.167969 343.886719 553.230469 343.886719 Z M 553.230469 343.886719 " fill-opacity="1" fill-rule="nonzero"/><path fill="#ffffff" d="M 456.6875 363.234375 C 461.269531 357.523438 469.460938 352.800781 476.398438 358.242188 C 480.152344 361.183594 478.515625 367.210938 475.152344 369.75 C 470.265625 373.460938 466.011719 375.695312 463.03125 381.503906 C 461.246094 384.992188 460.171875 388.8125 459.621094 392.707031 C 459.398438 394.242188 457.382812 394.621094 456.625 393.265625 C 451.46875 384.136719 450.003906 371.570312 456.6875 363.234375 Z M 530.160156 375.242188 C 528.011719 375.242188 526.496094 373.167969 527.277344 371.167969 C 528.730469 367.480469 530.613281 363.917969 532.875 360.746094 C 536.222656 356.058594 542.589844 353.324219 546.625 356.167969 C 550.753906 359.074219 550.214844 364.882812 547.320312 367.6875 C 541.101562 373.703125 533.253906 375.242188 530.160156 375.242188 Z M 530.160156 375.242188 " fill-opacity="1" fill-rule="nonzero"/><g clip-path="url(#e6221870d1)"><path fill="#fba9c0" d="M 291.648438 339.753906 C 291.648438 339.753906 222.617188 304.390625 170.96875 310.796875 C 177.542969 380.621094 205.496094 435.753906 289.632812 499.792969 C 290.308594 499.402344 290.980469 498.992188 291.648438 498.566406 C 381.484375 440.988281 414.550781 377.910156 381.496094 339.753906 C 348.445312 301.597656 291.648438 339.753906 291.648438 339.753906 Z M 291.648438 339.753906 " fill-opacity="1" fill-rule="evenodd"/></g><path fill="#ffffff" d="M 186.976562 333.738281 C 186.976562 334.347656 187.035156 334.949219 187.15625 335.546875 C 187.273438 336.144531 187.449219 336.726562 187.683594 337.289062 C 187.917969 337.851562 188.203125 338.386719 188.542969 338.894531 C 188.882812 339.398438 189.265625 339.867188 189.699219 340.300781 C 190.128906 340.730469 190.597656 341.113281 191.105469 341.453125 C 191.613281 341.792969 192.148438 342.078125 192.714844 342.3125 C 193.277344 342.542969 193.859375 342.722656 194.457031 342.839844 C 195.054688 342.957031 195.660156 343.019531 196.269531 343.019531 C 196.882812 343.019531 197.484375 342.957031 198.085938 342.839844 C 198.683594 342.722656 199.265625 342.542969 199.828125 342.3125 C 200.390625 342.078125 200.925781 341.792969 201.433594 341.453125 C 201.941406 341.113281 202.410156 340.730469 202.84375 340.300781 C 203.273438 339.867188 203.660156 339.398438 204 338.894531 C 204.339844 338.386719 204.625 337.851562 204.859375 337.289062 C 205.089844 336.726562 205.269531 336.144531 205.386719 335.546875 C 205.507812 334.949219 205.566406 334.347656 205.566406 333.738281 C 205.566406 333.128906 205.507812 332.523438 205.386719 331.925781 C 205.269531 331.328125 205.089844 330.746094 204.859375 330.183594 C 204.625 329.621094 204.339844 329.085938 204 328.582031 C 203.660156 328.074219 203.273438 327.605469 202.84375 327.175781 C 202.410156 326.742188 201.941406 326.359375 201.433594 326.019531 C 200.925781 325.679688 200.390625 325.394531 199.828125 325.160156 C 199.265625 324.929688 198.683594 324.753906 198.085938 324.632812 C 197.484375 324.515625 196.882812 324.457031 196.269531 324.457031 C 195.660156 324.457031 195.054688 324.515625 194.457031 324.632812 C 193.859375 324.753906 193.277344 324.929688 192.714844 325.160156 C 192.148438 325.394531 191.613281 325.679688 191.105469 326.019531 C 190.597656 326.359375 190.128906 326.742188 189.699219 327.175781 C 189.265625 327.605469 188.882812 328.074219 188.542969 328.582031 C 188.203125 329.085938 187.917969 329.621094 187.683594 330.183594 C 187.449219 330.746094 187.273438 331.328125 187.15625 331.925781 C 187.035156 332.523438 186.976562 333.128906 186.976562 333.738281 Z M 186.976562 333.738281 " fill-opacity="1" fill-rule="nonzero"/><path stroke-linecap="butt" transform="matrix(-1.46056, 1.458408, 1.46056, 1.458408, 207.631239, 324.455483)" fill="none" stroke-linejoin="miter" d="M -0.000376918 -0.499429 L 14.142034 -0.499708 " stroke="#fba9c0" stroke-width="1" stroke-opacity="1" stroke-miterlimit="4"/><path fill="#f44336" d="M 257.0625 343.882812 C 283.839844 343.882812 293.675781 371.207031 293.675781 371.207031 C 293.675781 371.207031 303.382812 343.882812 330.339844 343.882812 C 350.605469 343.882812 373.703125 359.917969 365.171875 396.371094 C 356.640625 432.820312 293.605469 478.230469 293.605469 478.230469 C 293.605469 478.230469 230.796875 432.820312 222.257812 396.371094 C 213.726562 359.917969 235.160156 343.882812 257.0625 343.882812 Z M 257.0625 343.882812 " fill-opacity="1" fill-rule="nonzero"/><path fill="#cc3333" d="M 252.878906 346.605469 C 273.898438 346.605469 284.335938 369.167969 287.707031 378.308594 C 288.183594 379.617188 290.003906 379.652344 290.554688 378.382812 L 293.636719 371.195312 C 289.296875 357.355469 277.367188 343.882812 257.007812 343.882812 C 248.574219 343.882812 239.664062 346.667969 232.738281 352.535156 C 238.859375 348.519531 246.03125 346.605469 252.878906 346.605469 Z M 330.285156 343.882812 C 323.820312 343.882812 317.929688 345.289062 313.335938 348.117188 C 316.5625 346.875 320.558594 346.605469 324.519531 346.605469 C 344.328125 346.605469 362.0625 361.601562 354.058594 396.273438 C 347.1875 426.035156 307.054688 462.144531 294.796875 475.921875 C 294.015625 476.800781 293.746094 478.21875 293.746094 478.21875 C 293.746094 478.21875 356.550781 432.808594 365.09375 396.359375 C 373.625 359.917969 352.222656 343.882812 330.285156 343.882812 Z M 330.285156 343.882812 " fill-opacity="1" fill-rule="nonzero"/><path fill="#ffffff" d="M 233.746094 363.230469 C 238.328125 357.519531 246.515625 352.796875 253.457031 358.242188 C 257.210938 361.183594 255.574219 367.210938 252.210938 369.75 C 247.324219 373.457031 243.070312 375.691406 240.089844 381.5 C 238.304688 384.992188 237.230469 388.808594 236.679688 392.703125 C 236.460938 394.242188 234.441406 394.621094 233.683594 393.265625 C 228.527344 384.136719 227.0625 371.566406 233.746094 363.230469 Z M 307.21875 375.242188 C 305.070312 375.242188 303.554688 373.164062 304.335938 371.164062 C 305.789062 367.480469 307.671875 363.914062 309.933594 360.742188 C 313.28125 356.058594 319.648438 353.324219 323.683594 356.167969 C 327.8125 359.070312 327.277344 364.878906 324.378906 367.6875 C 318.160156 373.703125 310.3125 375.242188 307.21875 375.242188 Z M 307.21875 375.242188 " fill-opacity="1" fill-rule="nonzero"/><g clip-path="url(#50fc8d6f3b)"><path stroke-linecap="butt" transform="matrix(2.065543, 0, 0, 2.0625, 170.967842, 310.020004)" fill="none" stroke-linejoin="miter" d="M 102.50071 33.999772 L 104.5753 31.050909 C 108.336795 25.706211 116.128329 25.346363 120.366393 30.321742 L 123.500027 33.999772 " stroke="#fba9c0" stroke-width="8" stroke-opacity="1" stroke-miterlimit="4"/></g></svg>